<?xml version="1.0" encoding="UTF-8" standalone="no"?>
<!DOCTYPE svg PUBLIC "-//W3C//DTD SVG 1.1//EN" "http://www.w3.org/Graphics/SVG/1.1/DTD/svg11.dtd">
<svg version="1.1" xmlns="http://www.w3.org/2000/svg" xmlns:xlink="http://www.w3.org/1999/xlink" preserveAspectRatio="xMidYMid meet" viewBox="0 0 89 69.77" width="89" height="69.77"><defs><path d="M58.43 32.89C55.91 33 54.68 30.81 54.46 26.15C54.28 22.18 55.12 14.59 54.98 11.64C54.97 11.43 54.89 9.75 54.88 9.54C54.04 9.58 50.13 25.99 48.02 28.9C47.39 29.85 46.34 30.7 45.05 30.76C42.07 30.9 40.01 27.55 39.77 22.36C39.61 18.96 40.24 12.68 39.9 5.52C39.87 4.75 39.71 4.44 39.57 4.45C36.77 4.58 30.51 23.46 30.21 32.89C30.17 34.27 30.41 36.57 30.75 37.79C27.37 37.56 23.74 37.52 23.59 34.11C23.44 30.99 25.07 24.35 27.01 18.46C28.36 14.35 33.61 0.26 39.16 0C45.29 -0.28 44.58 10.82 45.06 21.31C45.14 22.99 45.2 24.22 45.42 25.12C51.18 8.41 52.25 3.47 55.69 3.31C57.65 3.22 59.18 5.79 59.33 9.23C59.43 11.22 59.4 15.27 59.52 17.72C60.03 28.77 61.17 28.37 62.55 30.87C61.66 32.07 60.18 32.8 58.43 32.89Z" id="dWHTjpu5n"></path><path d="M70.06 25.85C67.06 25.79 65.56 23.84 65.61 21.28C65.66 19.06 66.73 16.82 67.54 15.37C62.3 14.48 61.66 12.04 61.69 10.67C61.75 7.94 64.37 6.55 66.05 6.59C67.38 6.61 67.77 7.72 67.75 8.44C67.73 9.25 67.37 10.24 66.8 11.42C69.39 12.06 73.63 12.11 73.58 14.13C73.55 15.97 70.44 19.02 70.39 21.51C70.37 22.43 70.77 22.96 71.49 22.97C74.36 23.03 78.05 16.54 79.72 13.36C80.91 13.59 81.34 14.05 81.33 14.73C81.28 16.95 75.53 25.96 70.06 25.85Z" id="a1pwV8CvOp"></path><path d="M76.81 47.01C74.62 46.96 73.53 45.54 73.57 43.68C73.6 42.06 74.38 40.43 74.98 39.37C71.15 38.72 70.69 36.94 70.71 35.95C70.75 33.96 72.67 32.95 73.89 32.97C74.86 32.99 75.14 33.8 75.13 34.32C75.12 34.92 74.85 35.63 74.44 36.5C76.32 36.96 79.41 37 79.38 38.47C79.35 39.81 77.09 42.03 77.05 43.85C77.04 44.52 77.33 44.9 77.85 44.91C79.94 44.95 82.63 40.23 83.85 37.91C84.72 38.08 85.03 38.41 85.02 38.91C84.99 40.52 80.8 47.09 76.81 47.01Z" id="cjSLdy9Rc"></path><path d="M79.2 61.69C77.47 61.65 76.61 60.53 76.64 59.06C76.66 57.79 77.28 56.51 77.75 55.67C74.74 55.16 74.37 53.76 74.39 52.97C74.42 51.41 75.93 50.61 76.89 50.63C77.65 50.65 77.88 51.28 77.87 51.69C77.86 52.16 77.65 52.73 77.32 53.41C78.81 53.77 81.24 53.8 81.22 54.96C81.2 56.02 79.41 57.77 79.38 59.2C79.37 59.73 79.6 60.03 80.01 60.04C81.66 60.07 83.78 56.35 84.74 54.52C85.42 54.65 85.67 54.91 85.66 55.3C85.64 56.58 82.33 61.75 79.2 61.69Z" id="i2wqFjlIzR"></path><path d="M84.69 20.93C87.14 20.98 89.03 22.16 89 23.66C88.95 26.06 86.49 28.47 84.04 28.42C81.58 28.37 80.19 25.52 80.22 24.11C80.26 22.25 82.28 20.88 84.69 20.93Z" id="c2HYfYB3XZ"></path><path d="M47.33 62.3C48.86 62.33 50.04 63.07 50.02 64C49.99 65.51 48.45 67.01 46.92 66.98C45.39 66.95 44.51 65.17 44.53 64.29C44.56 63.13 45.82 62.27 47.33 62.3Z" id="b1eNyrgpk5"></path><path d="M27.91 41.95C29.44 41.98 30.62 42.72 30.6 43.65C30.57 45.16 29.04 46.66 27.5 46.63C25.97 46.6 25.09 44.82 25.11 43.94C25.14 42.77 26.4 41.92 27.91 41.95Z" id="f6fOznugjn"></path><path d="M45.49 58.72C42.26 58.66 39.96 57.12 39.99 55.49C40 55.01 40.32 54.57 40.83 54.27C41.69 54.8 42.75 55.35 44.77 55.39C47.95 55.46 49.42 53.27 49.47 51.08C49.51 48.94 48.23 47.4 46.31 47.3C44.69 47.27 43.2 47.27 42.09 47.89C41.17 47.56 40.73 46.91 40.74 46.29C40.77 45.11 41.73 44.65 42.97 44.68C43.5 44.69 44.06 44.78 44.62 44.93C46.6 44.24 49.54 42.11 49.6 39.08C49.66 36.5 47.47 34.88 43.85 34.8C43.09 34.79 42.3 34.86 41.48 34.95C41.67 35.26 41.78 35.58 41.77 35.88C38.12 42.67 37.47 56.7 39.99 61.17C39.61 61.58 37.81 61.77 37 61.75C34.98 61.71 33.68 60.5 33.47 58.53C32.66 52.39 34.72 42.82 36.47 38.08C36.71 37.33 36.98 36.71 37.27 36.16C35.94 36.72 34.77 37.46 33.91 38.25C32.99 37.98 32.35 37.38 32.37 36.79C32.37 36.59 32.43 36.42 32.54 36.23C33.19 35.14 38.02 32.38 44.4 32.51C52.68 32.68 54.97 36.43 54.92 38.91C54.84 42.47 51 44.98 48.12 45.79C51.78 46.71 53.63 49.73 53.57 52.57C53.51 55.37 51.16 58.84 45.49 58.72Z" id="d2Mn19R23"></path><path d="M67.28 47.95C65.57 47.92 64.49 46.98 64.13 45.01C62.91 46.49 61.26 47.86 59.43 47.82C57.29 47.78 56.25 46.41 56.3 43.84C56.33 42.81 56.58 40.74 56.63 38.63C56.65 37.26 56.61 36.55 56.41 35.54C57.3 35.4 58.16 35.27 59.01 35.29C60.51 35.32 61.14 36.06 61.1 37.77C61.08 38.78 60.76 41.22 60.72 42.9C60.7 44.06 60.9 44.52 61.24 44.53C61.7 44.53 62.91 43.77 64.07 41.99C64.19 40.68 64.37 39.31 64.4 38.14C64.42 37.04 64.34 36.22 64.17 35.73C64.69 35.65 65.3 35.57 65.85 35.58C67.81 35.62 68.67 36.64 68.62 39.06C68.61 39.85 68.2 41.95 68.17 43.42C68.14 44.82 68.31 45.5 68.86 45.51C69.9 45.53 72.87 41.86 74.32 38.26C75.06 38.06 75.88 38.41 75.86 39.36C75.83 40.52 71.46 48.04 67.28 47.95Z" id="kEJZqMFsc"></path><path d="M61.24 52.01L61.42 52.04L61.6 52.08L61.77 52.13L61.93 52.18L62.08 52.25L62.22 52.33L62.35 52.42L62.46 52.51L62.55 52.62L62.63 52.74L62.68 52.87L62.71 53L62.72 53.15L62.71 53.26L62.69 53.37L62.64 53.47L62.59 53.57L62.51 53.66L62.42 53.74L62.31 53.83L62.19 53.91L62.05 53.98L61.89 54.05L61.72 54.12L61.53 54.19L61.32 54.25L61.1 54.31L60.86 54.37L60.83 54.3L60.79 54.23L60.76 54.17L60.72 54.11L60.69 54.06L60.65 54.01L60.61 53.97L60.58 53.93L60.54 53.9L60.5 53.87L60.46 53.85L60.42 53.83L60.38 53.82L60.33 53.82L60.29 53.81L60.09 53.84L59.89 53.91L59.68 54.04L59.48 54.21L59.27 54.41L59.08 54.65L58.89 54.92L58.72 55.21L58.56 55.51L58.41 55.83L58.29 56.15L58.19 56.48L58.11 56.81L58.06 57.12L58.03 57.42L58.03 57.55L58.04 57.66L58.05 57.77L58.06 57.86L58.08 57.94L58.1 58.02L58.13 58.09L58.16 58.14L58.2 58.19L58.24 58.24L58.28 58.27L58.32 58.3L58.37 58.31L58.42 58.33L58.48 58.33L58.6 58.31L58.73 58.26L58.87 58.18L59.01 58.07L59.14 57.93L59.27 57.77L59.4 57.59L59.51 57.39L59.61 57.18L59.69 56.95L59.76 56.71L59.8 56.46L59.81 56.21L59.8 55.96L59.75 55.71L59.96 55.58L60.15 55.46L60.33 55.36L60.49 55.28L60.63 55.21L60.76 55.15L60.88 55.11L60.98 55.07L61.08 55.05L61.18 55.03L61.27 55.02L61.35 55.01L61.43 55.01L61.52 55.01L61.6 55.01L61.79 55.02L61.96 55.05L62.12 55.1L62.27 55.17L62.4 55.26L62.52 55.37L62.63 55.51L62.72 55.66L62.81 55.84L62.88 56.05L62.95 56.28L63.01 56.54L63.05 56.82L63.09 57.14L63.12 57.48L63.48 57.31L63.84 57.14L64.2 56.99L64.56 56.84L64.91 56.71L65.27 56.59L65.63 56.48L65.98 56.38L66.33 56.29L66.68 56.22L67.02 56.16L67.35 56.12L67.68 56.09L68.01 56.07L68.32 56.07L68.44 56.08L68.55 56.09L68.65 56.12L68.76 56.15L68.85 56.2L68.94 56.25L69.02 56.31L69.09 56.39L69.15 56.47L69.2 56.56L69.23 56.66L69.25 56.77L69.26 56.9L69.25 57.03L69.22 57.17L68.8 57.19L68.38 57.24L67.95 57.3L67.53 57.37L67.12 57.47L66.7 57.58L66.29 57.7L65.88 57.84L65.47 58L65.07 58.16L64.68 58.34L64.29 58.54L63.9 58.74L63.52 58.96L63.15 59.19L63.14 59.85L63.11 60.62L63.03 61.44L62.92 62.3L62.76 63.18L62.56 64.07L62.31 64.95L62.01 65.8L61.66 66.61L61.26 67.37L60.8 68.05L60.29 68.64L59.72 69.12L59.09 69.48L58.4 69.7L57.64 69.77L57.33 69.75L57.03 69.71L56.75 69.64L56.5 69.54L56.26 69.43L56.05 69.29L55.86 69.13L55.69 68.94L55.54 68.73L55.42 68.5L55.31 68.25L55.24 67.98L55.18 67.69L55.15 67.38L55.15 67.05L55.18 66.52L55.27 65.98L55.41 65.45L55.6 64.91L55.83 64.38L56.1 63.85L56.42 63.32L56.76 62.81L57.15 62.29L57.56 61.79L58.01 61.3L58.47 60.82L58.97 60.35L59.48 59.9L60.02 59.47L60.02 59.4L60.02 59.37L60.02 59.34L60.02 59.31L60.02 59.28L60.02 59.26L60.02 59.23L60.02 59.2L60.02 59.17L60.01 59.15L60.01 59.12L60.01 59.1L60.01 59.07L60 59.05L59.84 59.21L59.68 59.35L59.51 59.49L59.35 59.61L59.18 59.72L59.01 59.83L58.83 59.92L58.66 60L58.48 60.06L58.3 60.12L58.12 60.17L57.94 60.2L57.75 60.23L57.57 60.24L57.38 60.24L57.07 60.22L56.79 60.17L56.52 60.1L56.28 60L56.05 59.87L55.85 59.72L55.66 59.54L55.5 59.34L55.36 59.12L55.23 58.87L55.14 58.6L55.06 58.31L55.01 58L54.98 57.67L54.98 57.32L55.03 56.77L55.15 56.22L55.34 55.7L55.59 55.18L55.89 54.69L56.25 54.23L56.65 53.8L57.1 53.4L57.57 53.04L58.08 52.73L58.61 52.46L59.16 52.25L59.72 52.1L60.29 52.01L60.86 51.98L61.05 51.99L61.24 52.01ZM58.05 64.79L57.54 66.23L57.34 67.65L57.36 67.98L57.42 68.23L57.54 68.4L57.72 68.46L58.46 67.86L59.07 66.3L59.55 64.21L59.85 62.02L58.83 63.38L58.05 64.79Z" id="f1mKu4l10P"></path><path d="M70.97 52.9L71.39 53.07L71.75 53.3L72.06 53.59L72.32 53.93L72.52 54.33L72.67 54.78L72.75 55.27L72.77 55.82L72.71 56.41L72.57 56.96L72.37 57.49L72.1 57.98L71.78 58.43L71.41 58.86L71.02 59.25L70.62 59.6L70.2 59.93L69.78 60.22L69.92 60.43L70.07 60.63L70.23 60.8L70.4 60.95L70.58 61.09L70.78 61.2L70.98 61.28L71.19 61.35L71.41 61.39L71.64 61.41L72.19 61.35L72.77 61.17L73.36 60.88L73.98 60.47L74.6 59.96L75.22 59.35L75.84 58.65L76.44 57.86L77.02 57L77.57 56.07L77.84 56.01L78.09 55.97L78.31 55.97L78.51 56L78.69 56.06L78.84 56.15L78.95 56.27L79.04 56.42L79.08 56.61L79.1 56.82L78.98 57.28L78.65 57.96L78.14 58.79L77.45 59.72L76.62 60.67L75.66 61.58L74.59 62.4L73.44 63.06L72.22 63.48L70.95 63.62L70.01 63.54L69.13 63.33L68.33 63L67.61 62.56L66.97 62.02L66.44 61.39L66.02 60.67L65.71 59.88L65.53 59.02L65.47 58.1L65.55 57.22L65.73 56.38L66.01 55.6L66.38 54.89L66.83 54.27L67.35 53.74L67.94 53.31L68.58 52.99L69.27 52.8L70 52.74L70.51 52.79L70.97 52.9ZM69.44 55.53L69.19 56.26L69.09 57.12L69.08 57.44L69.09 57.76L69.11 58.06L69.15 58.34L69.66 57.76L70.08 57.13L70.36 56.43L70.47 55.68L70.45 55.33L70.37 55.06L70.24 54.88L70.1 54.82L69.76 55.01L69.44 55.53Z" id="b4Tgm5hdnC"></path><path d="M0 27.55L0 27.55L0 27.55L0 27.55Z" id="e15FJ85Wwc"></path><path d="M13.36 47.29C13.47 48.08 13.33 48.69 12.98 49.27C12.92 49.38 12.87 49.49 12.82 49.6C12.72 49.92 12.51 50.14 12.23 50.31C12.17 50.35 12.1 50.39 12.04 50.44C11.93 50.51 11.81 50.58 11.7 50.65C11.62 50.67 11.55 50.68 11.48 50.7C11.48 50.81 11.49 50.92 11.5 51.04C12.65 51.26 13.79 51.32 14.9 50.84C15.97 50.39 16.62 49.47 17.37 48.67C17.47 48.43 17.65 48.27 17.86 48.14C18.01 47.88 18.21 47.67 18.47 47.53C18.64 47.28 18.87 47.11 19.15 47C19.6 46.46 20.25 46.42 20.87 46.27C20.79 45.61 20.03 45.67 19.76 45.21C17.92 44 16.01 42.96 13.73 42.89C13.61 42.92 13.49 42.96 13.37 43C13.13 43.08 12.89 43.17 12.64 43.24C10.48 43.93 8.55 45.16 6.43 45.94C4.84 46.53 3.2 46.75 1.51 46.63C1 46.59 0.53 46.21 0 46.49C0.89 48.11 2.34 49.1 3.96 49.84C5.83 50.7 7.74 50.39 9.63 49.89C10.1 49.67 10.57 49.45 11.04 49.23C11.47 48.93 11.89 48.63 12.32 48.33C12.64 48.01 12.95 47.7 13.36 47.29Z" id="asanU4S6X"></path><path d="M23.82 54.43C22.23 55.04 20.63 55.64 19.01 56.16C17.7 56.57 16.38 56.9 14.99 56.77C14.69 56.74 14.32 56.56 14.04 56.99C16.68 58.07 19.21 59.5 22.22 58.72C23.06 58.38 23.91 58.04 24.76 57.7C24.82 57.66 24.89 57.62 24.95 57.58C26.13 56.99 27.25 56.26 28.49 55.77C28.4 54.99 27.65 54.99 27.19 54.66C26.08 54.29 24.96 54 23.82 54.43Z" id="a1XitKtM3D"></path><path d="M14.82 32.57C13.69 32.64 12.6 32.64 11.51 32.42C11.42 32.38 11.33 32.33 11.25 32.29C11.56 33.15 12.18 33.76 12.78 34.41C13.17 34.83 13.55 34.92 14.09 34.96C15.49 35.06 16.84 34.6 18.23 34.68C18.45 34.74 18.66 34.79 18.87 34.84C18.57 34.06 18.12 33.33 17.41 32.93C16.64 32.5 15.65 32.52 14.82 32.57Z" id="akv3Hlb05"></path><path d="M30.08 66.15C29.54 66.58 28.96 66.88 28.2 67.11C29.3 67.65 30.38 67.87 31.47 67.7C32.22 67.59 32.99 67.35 33.39 66.55C33.54 66.23 33.61 66.04 33.19 65.86C32.09 65.4 31.03 65.38 30.08 66.15Z" id="b1AWgiDIpT"></path></defs><g><g><g><use xlink:href="#dWHTjpu5n" opacity="1" fill="#e55028" fill-opacity="1"></use><g><use xlink:href="#dWHTjpu5n" opacity="1" fill-opacity="0" stroke="#000000" stroke-width="1" stroke-opacity="0"></use></g></g><g><use xlink:href="#a1pwV8CvOp" opacity="1" fill="#e55028" fill-opacity="1"></use><g><use xlink:href="#a1pwV8CvOp" opacity="1" fill-opacity="0" stroke="#000000" stroke-width="1" stroke-opacity="0"></use></g></g><g><use xlink:href="#cjSLdy9Rc" opacity="1" fill="#f9b43b" fill-opacity="1"></use><g><use xlink:href="#cjSLdy9Rc" opacity="1" fill-opacity="0" stroke="#000000" stroke-width="1" stroke-opacity="0"></use></g></g><g><use xlink:href="#i2wqFjlIzR" opacity="1" fill="#f9b43b" fill-opacity="1"></use><g><use xlink:href="#i2wqFjlIzR" opacity="1" fill-opacity="0" stroke="#000000" stroke-width="1" stroke-opacity="0"></use></g></g><g><use xlink:href="#c2HYfYB3XZ" opacity="1" fill="#8bc334" fill-opacity="1"></use><g><use xlink:href="#c2HYfYB3XZ" opacity="1" fill-opacity="0" stroke="#000000" stroke-width="1" stroke-opacity="0"></use></g></g><g><use xlink:href="#b1eNyrgpk5" opacity="1" fill="#f9b43b" fill-opacity="1"></use><g><use xlink:href="#b1eNyrgpk5" opacity="1" fill-opacity="0" stroke="#000000" stroke-width="1" stroke-opacity="0"></use></g></g><g><use xlink:href="#f6fOznugjn" opacity="1" fill="#e55028" fill-opacity="1"></use><g><use xlink:href="#f6fOznugjn" opacity="1" fill-opacity="0" stroke="#000000" stroke-width="1" stroke-opacity="0"></use></g></g><g><use xlink:href="#d2Mn19R23" opacity="1" fill="#f9b43b" fill-opacity="1"></use><g><use xlink:href="#d2Mn19R23" opacity="1" fill-opacity="0" stroke="#000000" stroke-width="1" stroke-opacity="0"></use></g></g><g><use xlink:href="#kEJZqMFsc" opacity="1" fill="#f9b43b" fill-opacity="1"></use><g><use xlink:href="#kEJZqMFsc" opacity="1" fill-opacity="0" stroke="#000000" stroke-width="1" stroke-opacity="0"></use></g></g><g><use xlink:href="#f1mKu4l10P" opacity="1" fill="#f9b43b" fill-opacity="1"></use><g><use xlink:href="#f1mKu4l10P" opacity="1" fill-opacity="0" stroke="#000000" stroke-width="1" stroke-opacity="0"></use></g></g><g><use xlink:href="#b4Tgm5hdnC" opacity="1" fill="#f9b43b" fill-opacity="1"></use><g><use xlink:href="#b4Tgm5hdnC" opacity="1" fill-opacity="0" stroke="#000000" stroke-width="1" stroke-opacity="0"></use></g></g><g><use xlink:href="#e15FJ85Wwc" opacity="1" fill="#e55028" fill-opacity="1"></use><g><use xlink:href="#e15FJ85Wwc" opacity="1" fill-opacity="0" stroke="#000000" stroke-width="1" stroke-opacity="0"></use></g></g><g><use xlink:href="#asanU4S6X" opacity="1" fill="#e55028" fill-opacity="1"></use><g><use xlink:href="#asanU4S6X" opacity="1" fill-opacity="0" stroke="#000000" stroke-width="1" stroke-opacity="0"></use></g></g><g><use xlink:href="#a1XitKtM3D" opacity="1" fill="#f9b43b" fill-opacity="1"></use><g><use xlink:href="#a1XitKtM3D" opacity="1" fill-opacity="0" stroke="#000000" stroke-width="1" stroke-opacity="0"></use></g></g><g><use xlink:href="#akv3Hlb05" opacity="1" fill="#f9b43b" fill-opacity="1"></use><g><use xlink:href="#akv3Hlb05" opacity="1" fill-opacity="0" stroke="#000000" stroke-width="1" stroke-opacity="0"></use></g></g><g><use xlink:href="#b1AWgiDIpT" opacity="1" fill="#e55028" fill-opacity="1"></use><g><use xlink:href="#b1AWgiDIpT" opacity="1" fill-opacity="0" stroke="#000000" stroke-width="1" stroke-opacity="0"></use></g></g></g></g></svg>